<svg xmlns="http://www.w3.org/2000/svg" viewBox="0 0 48 48"><linearGradient id="a" x1="714.462" x2="726.675" y1="34.974" y2="19.885" gradientTransform="matrix(3.0757 0 0 -3.0757 -2192.118 108.538)" gradientUnits="userSpaceOnUse"><stop offset="0" stop-color="#FCD600"/><stop offset="1" stop-color="#F16222"/></linearGradient><path fill="url(#a)" d="M10.1 0h27.7C43.5 0 48 4.5 48 10.1v27.7C48 43.5 43.5 48 37.9 48H10.1C4.5 48 0 43.5 0 37.9V10.1C0 4.5 4.5 0 10.1 0z"/><path fill="#fff" d="M15.7 22.9c-.1 0-.2 0-.2-.1l-2-1-2 1c-.2.1-.4.1-.5 0-.2-.1-.2-.3-.2-.5l.4-2.2-1.6-1.5c-.1-.1-.2-.3-.1-.5s.2-.3.4-.3l2.2-.3 1-2c.2-.3.7-.3.9 0l1 2 2.2.3c.2 0 .3.2.4.3.1.2 0 .4-.1.5l-1.6 1.5.4 2.2c0 .2 0 .4-.2.5-.1.1-.2.1-.4.1zm-2.1-2.1c.1 0 .2 0 .2.1l1.3.7-.3-1.6c0-.2 0-.3.1-.4l1.1-1-1.5-.2c-.2 0-.3-.1-.4-.3l-.6-1.3-.6 1.3c-.1.1-.2.3-.4.3l-1.5.2 1.1 1c.1.1.2.3.1.4l-.2 1.5 1.3-.7h.3zM25.7 22.9c-.1 0-.2 0-.2-.1l-2-1-2 1c-.2.1-.4.1-.5 0-.2-.1-.2-.3-.2-.5l.4-2.2-1.6-1.5c-.1-.1-.2-.3-.1-.5s.2-.3.4-.3l2.2-.3 1-2c.2-.3.7-.3.9 0l1 2 2.2.3c.2 0 .3.2.4.3.1.2 0 .4-.1.5l-1.6 1.5.4 2.2c0 .2 0 .4-.2.5-.2.1-.3.1-.4.1zm-2.2-2.1c.1 0 .2 0 .2.1l1.3.7-.2-1.6c0-.2 0-.3.1-.4l1.1-1-1.5-.2c-.2 0-.3-.1-.4-.3l-.6-1.3-.6 1.3c-.1.1-.2.3-.4.3l-1.5.2 1.1 1c.1.1.2.3.1.4l-.2 1.5 1.3-.7h.2zM35.6 22.9c-.1 0-.2 0-.2-.1l-2-1-2 1c-.2.1-.4.1-.5 0-.2-.1-.2-.3-.2-.5l.4-2.2-1.6-1.5c-.1-.1-.2-.3-.1-.5s.2-.3.4-.3l2.2-.3 1-2c.2-.3.7-.3.9 0l1 2 2.2.3c.2 0 .3.2.4.3.1.2 0 .4-.1.5l-1.6 1.5.4 2.2c0 .2 0 .4-.2.5-.2.1-.3.1-.4.1zm-2.2-2.1c.1 0 .2 0 .2.1l1.3.7-.2-1.6c0-.2 0-.3.1-.4l1.1-1-1.5-.2c-.2 0-.3-.1-.4-.3l-.6-1.3-.6 1.3c-.1.1-.2.3-.4.3l-1.4.2 1.1 1c.1.1.2.3.1.4l-.2 1.4 1.3-.7c0 .1.1.1.1.1zM20.7 32.9c-.1 0-.2 0-.2-.1l-2-1-2 1c-.2.1-.4.1-.5 0-.2-.1-.2-.3-.2-.5l.4-2.2-1.6-1.5c-.1-.1-.2-.3-.1-.5s.2-.3.4-.3l2.2-.3 1-2c.2-.3.7-.3.9 0l1 2 2.2.3c.2 0 .3.2.4.3.1.2 0 .4-.1.5l-1.6 1.5.4 2.2c0 .2 0 .4-.2.5-.2 0-.3.1-.4.1zm-2.2-2.2c.1 0 .2 0 .2.1l1.3.7-.2-1.5c0-.2 0-.3.1-.4l1.1-1-1.5-.2c-.2 0-.3-.1-.4-.3l-.6-1.3-.6 1.2c-.1.1-.2.3-.4.3l-1.5.2 1.1 1c.1.1.2.3.1.4l-.2 1.5 1.3-.7h.2zM30.7 32.9c-.1 0-.2 0-.2-.1l-2-1-2 1c-.2.1-.4.1-.5 0-.2-.1-.2-.3-.2-.5l.4-2.2-1.6-1.5c-.1-.1-.2-.3-.1-.5s.2-.3.4-.3l2.2-.3 1-2c.2-.3.7-.3.9 0l1 2 2.2.3c.2 0 .3.2.4.3.1.2 0 .4-.1.5l-1.6 1.5.4 2.2c0 .2 0 .4-.2.5-.2 0-.3.1-.4.1zm-2.2-2.2c.1 0 .2 0 .2.1l1.3.7-.2-1.5c0-.2 0-.3.1-.4l1.1-1-1.5-.2c-.2 0-.3-.1-.4-.3l-.6-1.3-.7 1.2c-.1.1-.2.3-.4.3l-1.4.2 1.1 1c.1.1.2.3.1.4l-.2 1.4 1.3-.7c0 .1.1.1.2.1z"/></svg>